<svg xmlns="http://www.w3.org/2000/svg" width="41.271" height="41.27" viewBox="0 0 41.271 41.27">
  <g id="emergency-kit-svgrepo-com" transform="translate(0 -0.004)">
    <path id="Path_839" data-name="Path 839" d="M36.055,0H5.216A5.216,5.216,0,0,0,0,5.219V36.059a5.216,5.216,0,0,0,5.216,5.215H36.055a5.216,5.216,0,0,0,5.216-5.215V5.219A5.215,5.215,0,0,0,36.055,0ZM20.636,35.763A15.125,15.125,0,1,1,35.76,20.638,15.126,15.126,0,0,1,20.636,35.763Z" fill="#7d7"/>
    <path id="Path_840" data-name="Path 840" d="M146.487,134.7H141.77v-4.718a1.518,1.518,0,0,0-1.518-1.518h-4.027a1.518,1.518,0,0,0-1.518,1.518V134.7h-4.716a1.518,1.518,0,0,0-1.518,1.518v4.026a1.518,1.518,0,0,0,1.518,1.518h4.716v4.717a1.518,1.518,0,0,0,1.518,1.518h4.027a1.518,1.518,0,0,0,1.518-1.518v-4.717h4.717A1.518,1.518,0,0,0,148,140.24v-4.026A1.518,1.518,0,0,0,146.487,134.7Z" transform="translate(-117.604 -117.587)" fill="#7d7"/>
  </g>
</svg>
