<svg id="google-meet" xmlns="http://www.w3.org/2000/svg" width="50.94" height="41.919" viewBox="0 0 50.94 41.919">
  <path id="Path_854" data-name="Path 854" d="M69.51,36.931l4.966,5.675,6.678,4.266,1.165-9.9L81.155,27.28l-6.807,3.748Z" transform="translate(-40.695 -15.971)" fill="#188038"/>
  <path id="Path_855" data-name="Path 855" d="M0,69.855V78.3A3.492,3.492,0,0,0,3.495,81.79h8.44l1.745-6.38-1.745-5.555L6.144,68.11,0,69.855Z" transform="translate(0 -39.875)" fill="#1967d2"/>
  <path id="Path_856" data-name="Path 856" d="M11.935,0,0,11.935,6.144,13.68l5.791-1.745,1.716-5.48Z" fill="#ea4335"/>
  <path id="Path_857" data-name="Path 857" d="M0,46.835H11.935V28.79H0Z" transform="translate(0 -16.855)" fill="#4285f4"/>
  <path id="Path_858" data-name="Path 858" d="M64.939,11.627l-7.624,6.256V37.474l7.657,6.28A1.747,1.747,0,0,0,67.8,42.379v-29.4a1.749,1.749,0,0,0-2.856-1.351ZM45.67,27.534v9.025H28.79V48.493H53.825A3.492,3.492,0,0,0,57.319,45V37.474L45.67,27.534Z" transform="translate(-16.855 -6.574)" fill="#34a853"/>
  <path id="Path_859" data-name="Path 859" d="M53.825,0H28.79V11.935H45.675V20.96l11.641-9.651V3.495A3.492,3.492,0,0,0,53.825,0Z" transform="translate(-16.855)" fill="#fbbc04"/>
</svg>
