<svg xmlns="http://www.w3.org/2000/svg" width="15.764" height="15.764" viewBox="0 0 15.764 15.764">
  <g id="Group_111" data-name="Group 111" transform="translate(659 -177)">
    <path id="Path_85" data-name="Path 85" d="M-659,190.024v-9.083a.654.654,0,0,0,.029-.1,3.038,3.038,0,0,1,2.766-2.611c.273-.018.549,0,.837,0,0-.173.009-.311,0-.447a.685.685,0,0,1,.5-.78h.246a.7.7,0,0,1,.493.8c-.01.131,0,.264,0,.4h6.037c0-.14.009-.272,0-.4a.7.7,0,0,1,.493-.8h.246a.685.685,0,0,1,.5.78c-.011.14,0,.282,0,.431.193,0,.362,0,.531,0a3.053,3.053,0,0,1,3,2.254c.043.156.071.317.106.475v9.083a.5.5,0,0,0-.027.085,3.037,3.037,0,0,1-2.326,2.569c-.138.033-.279.058-.418.086h-10.222a.508.508,0,0,0-.086-.027,3.047,3.047,0,0,1-2.612-2.355C-658.954,190.264-658.976,190.143-659,190.024Zm1.231-6.943v.171q0,3.209,0,6.419a1.812,1.812,0,0,0,1.857,1.86q4.795,0,9.589,0a1.811,1.811,0,0,0,1.854-1.863q0-3.209,0-6.419v-.168Zm.011-1.249h13.279a1.954,1.954,0,0,0-2.39-2.36c0,.388,0,.778,0,1.168a.606.606,0,0,1-.566.615.608.608,0,0,1-.663-.612c-.006-.394,0-.788,0-1.191h-6.037c0,.065,0,.12,0,.176,0,.339,0,.677,0,1.016a.608.608,0,0,1-.618.613.608.608,0,0,1-.611-.618c0-.18,0-.359,0-.539,0-.214,0-.428,0-.639A1.964,1.964,0,0,0-657.758,181.832Z" transform="translate(0 0)" fill="#757575"/>
    <path id="Path_86" data-name="Path 86" d="M-584.094,457.455c.2,0,.4,0,.6,0a.615.615,0,0,1,.616.615.613.613,0,0,1-.6.613q-.615.011-1.23,0a.617.617,0,0,1-.609-.624.616.616,0,0,1,.613-.6C-584.5,457.451-584.3,457.455-584.094,457.455Z" transform="translate(-70.653 -268.94)" fill="#757575"/>
    <path id="Path_87" data-name="Path 87" d="M-406.968,457.453c.2,0,.4,0,.6,0a.617.617,0,0,1,.619.614.618.618,0,0,1-.619.615c-.4.006-.81.006-1.214,0a.614.614,0,0,1-.61-.622.614.614,0,0,1,.61-.606C-407.378,457.449-407.173,457.453-406.968,457.453Z" transform="translate(-240.511 -268.939)" fill="#757575"/>
    <path id="Path_88" data-name="Path 88" d="M-406.976,370.187c-.2,0-.4,0-.6,0a.617.617,0,0,1-.615-.618.614.614,0,0,1,.62-.611q.6-.006,1.2,0a.617.617,0,0,1,.623.609.618.618,0,0,1-.614.62C-406.566,370.191-406.771,370.187-406.976,370.187Z" transform="translate(-240.513 -184.074)" fill="#757575"/>
    <path id="Path_89" data-name="Path 89" d="M-584.1,370.187c-.2,0-.4,0-.6,0a.62.62,0,0,1-.615-.619.618.618,0,0,1,.623-.61q.6-.006,1.2,0a.615.615,0,0,1,.621.61.616.616,0,0,1-.614.619C-583.694,370.191-583.9,370.187-584.1,370.187Z" transform="translate(-70.657 -184.074)" fill="#757575"/>
    <path id="Path_90" data-name="Path 90" d="M-495.644,370.186c-.2,0-.4,0-.6,0a.619.619,0,0,1-.615-.618.616.616,0,0,1,.622-.611q.6-.006,1.2,0a.612.612,0,0,1,.62.61.614.614,0,0,1-.612.619C-495.234,370.19-495.439,370.186-495.644,370.186Z" transform="translate(-155.485 -184.073)" fill="#757575"/>
    <path id="Path_91" data-name="Path 91" d="M-495.622,457.453c.2,0,.4,0,.6,0a.611.611,0,0,1,.606.608.609.609,0,0,1-.6.619q-.622.013-1.245,0a.615.615,0,0,1-.6-.616.615.615,0,0,1,.606-.611C-496.043,457.449-495.832,457.453-495.622,457.453Z" transform="translate(-155.486 -268.938)" fill="#757575"/>
  </g>
</svg>
