<svg id="_2116467169744" xmlns="http://www.w3.org/2000/svg" width="47.135" height="47.135" viewBox="0 0 47.135 47.135">
  <path id="Path_872" data-name="Path 872" d="M23.568,0A23.568,23.568,0,1,1,0,23.568,23.567,23.567,0,0,1,23.568,0Z" fill="#e5e5e4"/>
  <path id="Path_873" data-name="Path 873" d="M36.049,12.94A23.109,23.109,0,1,1,12.94,36.049,23.109,23.109,0,0,1,36.049,12.94Z" transform="translate(-12.481 -12.481)" fill="#fff"/>
  <path id="Path_874" data-name="Path 874" d="M86.465,65.21A21.255,21.255,0,1,1,65.21,86.465,21.255,21.255,0,0,1,86.465,65.21Z" transform="translate(-62.897 -62.897)" fill="#4a8cff"/>
  <path id="Path_875" data-name="Path 875" d="M273.53,456.483v9.989a4.088,4.088,0,0,0,4.1,4.067h14.56a.743.743,0,0,0,.747-.738v-9.989a4.088,4.088,0,0,0-4.1-4.067h-14.56a.743.743,0,0,0-.747.738Zm20.337,3.9,6.011-4.391c.522-.432.927-.324.927.459v13.39c0,.891-.5.783-.927.459l-6.011-4.382Z" transform="translate(-263.829 -439.575)" fill="#fff"/>
</svg>
